<?xml version="1.0" standalone="no"?>
<!DOCTYPE svg PUBLIC "-//W3C//DTD SVG 20010904//EN"
 "http://www.w3.org/TR/2001/REC-SVG-20010904/DTD/svg10.dtd">
<svg version="1.0" xmlns="http://www.w3.org/2000/svg"
 width="500.000000pt" height="500.000000pt" viewBox="0 0 500.000000 500.000000"
 preserveAspectRatio="xMidYMid meet">

<g transform="translate(0.000000,500.000000) scale(0.100000,-0.100000)"
fill="#000000" stroke="none">
<path d="M2320 4375 l-115 -54 -198 -1 c-168 0 -199 -2 -203 -15 -4 -9 -7 -50
-8 -92 l-1 -77 -120 -30 c-66 -17 -126 -35 -132 -39 -7 -5 -13 -20 -13 -35 0
-24 -10 -32 -102 -77 -57 -28 -104 -57 -106 -66 -1 -8 21 -67 51 -130 30 -63
138 -294 241 -515 l186 -401 0 -312 c-1 -171 2 -316 5 -321 3 -6 44 -10 90
-10 l84 0 10 -38 c6 -21 14 -52 17 -70 10 -50 26 -58 95 -43 59 12 59 12 83
-16 l23 -27 63 28 c34 16 104 48 154 71 51 24 138 55 193 69 100 26 108 26
461 26 282 0 362 3 370 13 6 7 12 49 14 92 l3 80 50 11 c100 23 102 27 75 136
-11 45 -20 87 -20 95 0 7 20 23 45 35 25 12 48 30 51 40 3 12 -33 102 -100
244 l-106 226 0 372 0 371 -203 203 -202 202 -124 0 c-109 0 -128 3 -158 21
-27 17 -44 20 -77 16 -34 -5 -64 2 -150 33 -59 22 -108 40 -109 40 -1 0 -54
-25 -117 -55z m145 -45 c4 -6 -5 -10 -20 -10 -15 0 -24 4 -20 10 3 6 12 10 20
10 8 0 17 -4 20 -10z m535 -270 c0 -167 1 -180 19 -190 12 -6 92 -10 190 -10
l171 0 0 -790 0 -790 -750 0 -750 0 0 980 0 980 560 0 560 0 0 -180z m310
-113 c0 -4 -51 -6 -112 -5 l-113 3 -3 120 -3 120 116 -115 c63 -63 115 -118
115 -123z m-1511 -247 c0 -192 -4 -352 -8 -355 -5 -2 -43 137 -85 309 -42 172
-79 322 -82 333 -5 18 3 23 73 41 43 11 84 20 91 21 10 1 12 -70 11 -349z
m-154 -136 c48 -195 85 -357 83 -360 -5 -4 -308 640 -308 654 0 9 105 59 127
61 7 1 45 -137 98 -355z m1900 -764 c29 -56 31 -70 11 -70 -8 0 -19 23 -29 60
-8 33 -13 60 -11 60 2 0 15 -22 29 -50z m-38 -322 c-7 -4 -20 -8 -29 -8 -16 0
-18 12 -17 118 l1 117 28 -110 c22 -82 26 -111 17 -117z m-1177 -287 c-8 -5
-66 -21 -129 -36 -122 -29 -131 -27 -131 23 0 22 1 22 138 22 78 0 131 -4 122
-9z"/>
<path d="M2022 3898 c-16 -16 -15 -43 2 -57 9 -8 74 -11 211 -9 176 3 199 5
209 21 8 12 8 22 0 35 -10 15 -33 17 -210 20 -147 2 -203 -1 -212 -10z"/>
<path d="M2016 3714 c-9 -24 -8 -31 10 -48 13 -14 59 -16 353 -16 365 0 367 0
359 52 l-3 23 -356 3 c-319 2 -357 1 -363 -14z"/>
<path d="M2028 3489 c-22 -12 -23 -42 -2 -63 14 -14 81 -16 595 -16 381 0 587
4 600 10 21 12 25 50 7 68 -16 16 -1174 17 -1200 1z"/>
<path d="M2022 3288 c-7 -7 -12 -19 -12 -28 0 -40 3 -40 611 -40 323 0 594 3
603 6 19 7 21 45 4 62 -17 17 -1189 17 -1206 0z"/>
<path d="M2014 3074 c-14 -55 -22 -54 617 -54 634 0 615 -2 607 52 l-3 23
-607 3 -608 2 -6 -26z"/>
<path d="M2026 2894 c-9 -8 -16 -21 -16 -27 1 -37 -1 -37 621 -35 l604 3 3 24
c8 51 12 51 -614 51 -516 0 -584 -2 -598 -16z"/>
<path d="M2806 2694 c-19 -18 -19 -20 -6 -45 10 -18 23 -19 210 -19 109 0 205
3 214 6 9 4 16 18 16 34 0 16 -7 30 -16 34 -9 3 -103 6 -209 6 -163 0 -196 -3
-209 -16z"/>
<path d="M1490 1710 c-51 -10 -102 -34 -123 -58 -11 -11 -27 -51 -36 -89 -17
-66 -18 -68 -51 -71 -39 -4 -50 -15 -50 -54 0 -23 4 -28 24 -28 41 0 45 -18
25 -105 -42 -186 -64 -301 -61 -317 3 -14 14 -18 52 -18 l48 0 12 53 c6 28 18
79 26 112 8 33 22 102 33 153 10 52 23 98 29 104 5 5 39 10 75 12 37 1 68 4
70 6 3 3 7 22 11 43 l7 37 -63 0 c-84 0 -92 7 -79 57 6 22 19 47 30 57 24 22
83 31 109 17 18 -10 24 -6 48 25 27 35 27 37 9 50 -10 8 -33 14 -51 14 -18 0
-38 2 -46 4 -7 2 -29 0 -48 -4z"/>
<path d="M1825 1489 c-101 -34 -145 -74 -192 -176 -72 -157 -21 -306 117 -343
102 -27 230 14 294 95 88 110 100 299 23 373 -56 54 -163 77 -242 51z m147
-115 c24 -24 28 -35 28 -83 0 -145 -66 -231 -175 -231 -38 0 -52 5 -77 30 -28
29 -30 35 -26 93 2 37 14 87 28 120 22 49 32 61 75 83 61 31 105 27 147 -12z"/>
<path d="M2532 1488 c-17 -5 -47 -25 -67 -45 -40 -41 -50 -38 -47 12 l3 35
-50 0 c-27 0 -53 -5 -56 -10 -3 -6 -10 -31 -15 -58 -5 -26 -25 -123 -45 -217
-20 -93 -39 -185 -42 -202 l-6 -33 55 0 55 0 11 43 c25 98 42 175 42 192 0 29
32 107 52 129 10 11 18 23 18 27 0 12 69 29 116 29 39 0 43 2 58 41 9 22 14
44 11 49 -8 12 -58 17 -93 8z"/>
<path d="M2950 1488 c-19 -5 -49 -23 -65 -39 -39 -37 -47 -37 -43 4 l3 32 -52
3 -52 3 -11 -39 c-5 -22 -19 -82 -30 -133 -54 -248 -69 -332 -64 -340 8 -14
90 -11 103 4 6 8 22 70 35 138 14 68 32 145 39 171 23 73 66 108 139 111 31 1
44 -4 58 -21 22 -27 19 -70 -16 -222 -14 -58 -28 -124 -31 -147 l-6 -43 51 0
c28 0 53 4 56 9 3 5 17 62 31 127 41 196 59 245 100 273 68 46 155 23 155 -40
0 -27 -16 -112 -45 -244 -29 -129 -30 -125 26 -125 60 0 65 7 95 155 12 60 27
130 33 155 25 106 6 181 -54 206 -67 28 -145 11 -201 -41 -20 -19 -39 -35 -41
-35 -8 0 -29 25 -36 43 -15 39 -102 56 -177 35z"/>
<path d="M3740 1487 c-73 -25 -98 -45 -115 -91 -36 -94 6 -161 122 -195 67
-20 103 -44 103 -69 0 -6 -5 -22 -11 -35 -28 -62 -144 -63 -209 -2 l-25 23
-38 -32 -37 -33 20 -26 c11 -14 46 -35 78 -47 73 -28 181 -22 241 12 53 30 86
93 85 160 0 45 -4 54 -35 79 -19 16 -42 29 -51 29 -9 0 -20 5 -23 10 -3 6 -18
10 -33 10 -15 0 -42 9 -59 20 -41 24 -46 70 -11 94 32 23 125 21 164 -3 30
-18 30 -18 58 5 15 14 26 32 24 41 -9 45 -169 77 -248 50z"/>
</g>
</svg>
